<svg width="141" height="36" viewBox="0 0 141 36" fill="none" xmlns="http://www.w3.org/2000/svg">
<path fill-rule="evenodd" clip-rule="evenodd" d="M46.2136 10.3839H47.0826C47.6756 10.3839 48.1563 10.8646 48.1563 11.4576V12.4742C48.1563 12.5057 48.1819 12.5313 48.2134 12.5313C48.708 11.6564 49.3739 11.0202 50.2109 10.6225C51.048 10.2248 51.9516 10.026 52.9218 10.026C53.9682 10.026 54.9098 10.2198 55.7469 10.6076C56.584 10.9953 57.2974 11.5272 57.8871 12.2032C58.4768 12.8792 58.9239 13.6746 59.2283 14.5892C59.5327 15.5038 59.6849 16.4881 59.6849 17.5419C59.6849 18.5957 59.5232 19.5799 59.1998 20.4946C58.8763 21.4092 58.4245 22.2045 57.8443 22.8806C57.2641 23.5566 56.5649 24.0885 55.7469 24.4762C54.9289 24.8639 54.0347 25.0578 53.0645 25.0578C52.4177 25.0578 51.847 24.9882 51.3524 24.849C50.8577 24.7098 50.4202 24.5309 50.0397 24.3122C49.6592 24.0935 49.3358 23.8598 49.0695 23.6113C48.8031 23.3627 48.5844 23.1192 48.4132 22.8806C48.3659 22.8806 48.3275 22.9189 48.3275 22.9662V30.1896C48.3275 30.9133 47.7409 31.5 47.0172 31.5H46.2136C45.4899 31.5 44.9032 30.9133 44.9032 30.1896V11.6943C44.9032 10.9706 45.4899 10.3839 46.2136 10.3839ZM56.2606 17.5419C56.2606 16.9852 56.1702 16.4483 55.9895 15.9313C55.8087 15.4144 55.5424 14.9571 55.1904 14.5594C54.8385 14.1617 54.4152 13.8436 53.9206 13.605C53.426 13.3664 52.8648 13.2471 52.237 13.2471C51.6092 13.2471 51.048 13.3664 50.5534 13.605C50.0587 13.8436 49.6354 14.1617 49.2835 14.5594C48.9316 14.9571 48.6652 15.4144 48.4845 15.9313C48.3038 16.4483 48.2134 16.9852 48.2134 17.5419C48.2134 18.0986 48.3038 18.6355 48.4845 19.1524C48.6652 19.6694 48.9316 20.1267 49.2835 20.5244C49.6354 20.9221 50.0587 21.2402 50.5534 21.4788C51.048 21.7174 51.6092 21.8367 52.237 21.8367C52.8648 21.8367 53.426 21.7174 53.9206 21.4788C54.4152 21.2402 54.8385 20.9221 55.1904 20.5244C55.5424 20.1267 55.8087 19.6694 55.9895 19.1524C56.1702 18.6355 56.2606 18.0986 56.2606 17.5419ZM64.6193 10.3839H65.5999C66.2258 10.3839 66.7333 10.8913 66.7333 11.5172V12.5935C66.7333 12.625 66.7588 12.6506 66.7903 12.6506C67.1708 11.8155 67.713 11.1693 68.4169 10.712C69.1208 10.2546 69.9293 10.026 70.8424 10.026C71.0517 10.026 71.2562 10.0459 71.456 10.0856C71.8126 10.1566 72.0695 10.4697 72.0695 10.8333V12.7969C72.0695 13.1918 71.7494 13.5119 71.3545 13.5119C71.312 13.5119 71.2695 13.5081 71.2277 13.5006C70.9518 13.4509 70.6807 13.426 70.4144 13.426C69.6154 13.426 68.9733 13.5801 68.4882 13.8883C68.0031 14.1965 67.6321 14.5494 67.3753 14.9471C67.1185 15.3448 66.9473 15.7424 66.8617 16.1401C66.7761 16.5378 66.7333 16.836 66.7333 17.0349V23.3895C66.7333 24.1132 66.1466 24.6999 65.4229 24.6999H64.6193C63.8956 24.6999 63.3089 24.1132 63.3089 23.3895V11.6943C63.3089 10.9706 63.8956 10.3839 64.6193 10.3839ZM76.2049 10.3839H77.0085C77.7322 10.3839 78.3189 10.9706 78.3189 11.6943V23.3895C78.3189 24.1132 77.7322 24.6999 77.0085 24.6999H76.2049C75.4812 24.6999 74.8945 24.1132 74.8945 23.3895V11.6943C74.8945 10.9706 75.4812 10.3839 76.2049 10.3839ZM74.4094 5.5224C74.4094 4.94578 74.6139 4.44373 75.023 4.01624C75.432 3.58874 75.9504 3.375 76.5782 3.375C77.206 3.375 77.7339 3.5788 78.1619 3.98641C78.59 4.39402 78.804 4.90601 78.804 5.5224C78.804 6.13879 78.59 6.65078 78.1619 7.05839C77.7339 7.466 77.206 7.6698 76.5782 7.6698C75.9504 7.6698 75.432 7.45606 75.023 7.02857C74.6139 6.60107 74.4094 6.09902 74.4094 5.5224ZM89.1626 13.6555C88.4679 13.1446 87.8495 12.8892 87.3077 12.8892C86.8511 12.8892 86.4041 13.0085 85.9665 13.2471C85.5289 13.4857 85.3102 13.8734 85.3102 14.4103C85.3102 14.8477 85.4909 15.1658 85.8524 15.3647C86.2138 15.5635 86.6704 15.7325 87.2221 15.8717C87.7738 16.0109 88.3683 16.155 89.0056 16.3041C89.6429 16.4533 90.2374 16.6819 90.7891 16.9901C91.3408 17.2983 91.7974 17.7208 92.1588 18.2577C92.5203 18.7945 92.701 19.5302 92.701 20.4647C92.701 21.3197 92.525 22.0405 92.1731 22.6271C91.8211 23.2136 91.3646 23.6858 90.8034 24.0437C90.2421 24.4016 89.6096 24.6601 88.9057 24.8192C88.2018 24.9783 87.4979 25.0578 86.794 25.0578C85.7287 25.0578 84.749 24.8987 83.8548 24.5806C83.5047 24.456 83.0846 24.2057 82.5944 23.8295C82.0203 23.389 81.912 22.5664 82.3526 21.9923C82.3901 21.9434 82.431 21.8972 82.475 21.854L82.8302 21.506C83.3204 21.0257 84.0981 21.005 84.6132 21.4585C84.8209 21.6413 85.0009 21.7823 85.1532 21.8814C85.6574 22.2095 86.2709 22.3735 86.9938 22.3735C87.2411 22.3735 87.4979 22.3437 87.7643 22.2841C88.0306 22.2244 88.2779 22.125 88.5062 21.9858C88.7345 21.8466 88.92 21.6727 89.0627 21.4639C89.2053 21.2551 89.2767 21.0115 89.2767 20.7332C89.2767 20.2361 89.096 19.8682 88.7345 19.6296C88.373 19.391 87.9165 19.1972 87.3648 19.0481C86.8131 18.8989 86.2186 18.7597 85.5813 18.6305C84.944 18.5013 84.3495 18.2925 83.7978 18.0042C83.2461 17.7159 82.7895 17.3132 82.428 16.7963C82.0666 16.2793 81.8859 15.5635 81.8859 14.6489C81.8859 13.8535 82.0428 13.1626 82.3567 12.576C82.6706 11.9895 83.0844 11.5073 83.598 11.1295C84.1117 10.7517 84.7014 10.4734 85.3673 10.2944C86.0331 10.1155 86.7084 10.026 87.3933 10.026C88.3065 10.026 89.2101 10.19 90.1042 10.5181C90.428 10.6369 90.7892 10.8569 91.1878 11.178C91.7513 11.6321 91.84 12.457 91.386 13.0205C91.3482 13.0674 91.3072 13.1116 91.2634 13.1528L90.8367 13.5543C90.3761 13.9874 89.672 14.03 89.1626 13.6555ZM96.9506 10.3839H97.5829C98.3066 10.3839 98.8933 10.9706 98.8933 11.6943V12.6208C99.2548 11.9447 99.7446 11.3433 100.42 10.8163C101.095 10.2894 102.004 10.026 103.145 10.026C105.295 10.026 106.722 10.9108 107.426 12.6804C107.92 11.7658 108.538 11.0947 109.28 10.6672C110.022 10.2397 110.907 10.026 111.934 10.026C112.847 10.026 113.618 10.185 114.246 10.5032C114.873 10.8213 115.382 11.2587 115.772 11.8155C116.162 12.3722 116.443 13.0234 116.614 13.769C116.785 14.5147 116.871 15.3149 116.871 16.1699V23.3895C116.871 24.1132 116.284 24.6999 115.561 24.6999H114.757C114.033 24.6999 113.447 24.1132 113.447 23.3895V16.5875C113.447 16.1501 113.409 15.7275 113.333 15.3199C113.256 14.9123 113.123 14.5544 112.933 14.2462C112.743 13.938 112.486 13.6945 112.163 13.5155C111.839 13.3366 111.421 13.2471 110.907 13.2471C110.374 13.2471 109.922 13.3515 109.551 13.5602C109.181 13.769 108.876 14.0474 108.638 14.3953C108.401 14.7433 108.229 15.141 108.125 15.5883C108.02 16.0357 107.968 16.4881 107.968 16.9454V23.3895C107.968 24.1132 107.381 24.6999 106.657 24.6999H105.854C105.13 24.6999 104.543 24.1132 104.543 23.3895V16.1699C104.543 15.2752 104.363 14.5644 104.001 14.0374C103.64 13.5105 103.041 13.2471 102.203 13.2471C101.633 13.2471 101.152 13.3465 100.762 13.5453C100.372 13.7442 100.049 14.0126 99.7922 14.3506C99.5354 14.6886 99.3499 15.0763 99.2357 15.5138C99.1216 15.9512 99.0645 16.4085 99.0645 16.8857V23.3895C99.0645 24.1132 98.4779 24.6999 97.7542 24.6999H96.9506C96.2269 24.6999 95.6402 24.1132 95.6402 23.3895V11.6943C95.6402 10.9706 96.2269 10.3839 96.9506 10.3839ZM122.405 10.3839H123.208C123.932 10.3839 124.519 10.9706 124.519 11.6943V23.3895C124.519 24.1132 123.932 24.6999 123.208 24.6999H122.405C121.681 24.6999 121.094 24.1132 121.094 23.3895V11.6943C121.094 10.9706 121.681 10.3839 122.405 10.3839ZM120.609 5.5224C120.609 4.94578 120.814 4.44373 121.223 4.01624C121.632 3.58874 122.15 3.375 122.778 3.375C123.406 3.375 123.934 3.5788 124.362 3.98641C124.79 4.39402 125.004 4.90601 125.004 5.5224C125.004 6.13879 124.79 6.65078 124.362 7.05839C123.934 7.466 123.406 7.6698 122.778 7.6698C122.15 7.6698 121.632 7.45606 121.223 7.02857C120.814 6.60107 120.609 6.09902 120.609 5.5224ZM137.361 13.8949C137.22 13.7846 137.096 13.6979 136.989 13.6348C136.551 13.3763 136.104 13.2471 135.648 13.2471C135.02 13.2471 134.459 13.3664 133.964 13.605C133.469 13.8436 133.046 14.1617 132.694 14.5594C132.342 14.9571 132.076 15.4144 131.895 15.9313C131.714 16.4483 131.624 16.9852 131.624 17.5419C131.624 18.0986 131.714 18.6355 131.895 19.1524C132.076 19.6694 132.342 20.1267 132.694 20.5244C133.046 20.9221 133.469 21.2402 133.964 21.4788C134.459 21.7174 135.02 21.8367 135.648 21.8367C136.18 21.8367 136.675 21.7224 137.132 21.4937C137.224 21.4475 137.324 21.3846 137.432 21.3052C137.977 20.9045 138.737 20.9844 139.187 21.4897L139.708 22.0745C140.166 22.5892 140.12 23.3778 139.605 23.836C139.542 23.8922 139.473 23.9418 139.4 23.9841C138.953 24.2426 138.501 24.4514 138.045 24.6104C137.588 24.7695 137.151 24.8838 136.732 24.9534C136.313 25.023 135.952 25.0578 135.648 25.0578C134.62 25.0578 133.65 24.8788 132.737 24.5209C131.824 24.163 131.034 23.656 130.368 22.9999C129.703 22.3437 129.175 21.5534 128.785 20.6288C128.395 19.7042 128.2 18.6752 128.2 17.5419C128.2 16.4085 128.395 15.3796 128.785 14.455C129.175 13.5304 129.703 12.7401 130.368 12.0839C131.034 11.4278 131.824 10.9207 132.737 10.5628C133.65 10.2049 134.62 10.026 135.648 10.026C136.523 10.026 137.403 10.2 138.287 10.5479C138.624 10.6805 139.022 10.9176 139.48 11.2592C140.061 11.6917 140.18 12.5126 139.748 13.0929C139.716 13.1359 139.681 13.177 139.644 13.2157L139.115 13.7689C138.649 14.2555 137.891 14.3099 137.361 13.8949Z" fill="#040D3A"/>
<path fill-rule="evenodd" clip-rule="evenodd" d="M35.5383 18.7399L32.8835 16.0794C32.673 15.8684 32.5548 15.5827 32.5548 15.2847V12.0281C32.5548 9.01924 32.2422 7.92815 31.6552 6.82815C31.0682 5.72815 30.2068 4.86486 29.1091 4.27657C28.0115 3.68829 26.9227 3.375 23.9203 3.375H19.6262C19.502 3.375 19.4012 3.27426 19.4012 3.15C19.4012 3.09041 19.4249 3.03325 19.467 2.99107L22.122 0.330362C22.333 0.118859 22.6195 0 22.9183 0H24.4099C28.4131 0 29.8648 0.417715 31.3283 1.2021C32.7918 1.98648 33.9404 3.13753 34.7231 4.60419C35.5058 6.07086 35.9226 7.52565 35.9226 11.5375V18.581C35.9226 18.7052 35.8218 18.806 35.6976 18.806C35.6378 18.806 35.5805 18.7822 35.5383 18.7399Z" fill="#E55737"/>
<path fill-rule="evenodd" clip-rule="evenodd" d="M17.2218 35.6161L19.8768 32.9554C20.0878 32.7439 20.3743 32.625 20.6731 32.625H23.9203C26.9227 32.625 28.0115 32.3117 29.1091 31.7234C30.2067 31.1351 31.0682 30.2719 31.6552 29.1719C32.2422 28.0719 32.5548 26.9808 32.5548 23.9719V19.669C32.5548 19.5448 32.6556 19.444 32.7798 19.444C32.8396 19.444 32.8969 19.4678 32.9391 19.5101L35.5939 22.1706C35.8044 22.3816 35.9226 22.6673 35.9226 22.9653V24.4625C35.9226 28.4744 35.5057 29.9291 34.7231 31.3958C33.9404 32.8625 32.7918 34.0135 31.3283 34.7979C29.8648 35.5823 28.4131 36 24.4099 36H17.3811C17.2568 36 17.1561 35.8993 17.1561 35.775C17.1561 35.7154 17.1797 35.6583 17.2218 35.6161Z" fill="#F6C943"/>
<path fill-rule="evenodd" clip-rule="evenodd" d="M0.38427 17.2601L3.03909 19.9206C3.24955 20.1316 3.36774 20.4173 3.36774 20.7153V23.9719C3.36774 26.9808 3.68035 28.0719 4.26738 29.1719C4.8544 30.2719 5.71583 31.1351 6.81346 31.7234C7.9111 32.3117 8.99984 32.625 12.0022 32.625H16.2963C16.4206 32.625 16.5213 32.7257 16.5213 32.85C16.5213 32.9096 16.4977 32.9667 16.4556 33.0089L13.8006 35.6696C13.5896 35.8811 13.3031 36 13.0043 36H11.5127C7.50946 36 6.05781 35.5823 4.59429 34.7979C3.13078 34.0135 1.98221 32.8625 1.19951 31.3958C0.416817 29.9291 0 28.4744 0 24.4625V17.419C0 17.2948 0.100736 17.194 0.225 17.194C0.284758 17.194 0.342061 17.2178 0.38427 17.2601Z" fill="#7B8FEC"/>
<path fill-rule="evenodd" clip-rule="evenodd" d="M18.7008 0.383928L16.0458 3.04464C15.8347 3.25614 15.5482 3.375 15.2494 3.375H12.0022C8.99984 3.375 7.9111 3.68829 6.81346 4.27657C5.71583 4.86486 4.8544 5.72815 4.26738 6.82815C3.68035 7.92815 3.36774 9.01924 3.36774 12.0281V16.331C3.36774 16.4552 3.26701 16.556 3.14274 16.556C3.08298 16.556 3.02568 16.5322 2.98347 16.4899L0.328649 13.8294C0.118194 13.6184 0 13.3327 0 13.0347V11.5375C0 7.52565 0.416817 6.07086 1.19951 4.60419C1.98221 3.13753 3.13078 1.98648 4.59429 1.2021C6.05781 0.417715 7.50946 0 11.5127 0H18.5415C18.6658 0 18.7665 0.100736 18.7665 0.225C18.7665 0.28459 18.7429 0.341746 18.7008 0.383928Z" fill="#D77EE9"/>
<path fill-rule="evenodd" clip-rule="evenodd" d="M29.929 13.1354L26.3088 9.66804C26.0693 9.42806 25.7892 9.25362 25.4907 9.14473C25.2439 9.05119 24.9763 9 24.6968 9H14.0108C13.8866 9 13.7858 8.89926 13.7858 8.775C13.7858 8.71538 13.8095 8.65819 13.8516 8.616L16.5091 5.95503C16.7201 5.74373 17.0065 5.625 17.3051 5.625H25.8194C28.2993 5.625 30.3097 7.63972 30.3097 10.125V12.9729C30.3097 13.0972 30.2089 13.1979 30.0847 13.1979C30.0267 13.1979 29.9709 13.1756 29.929 13.1354Z" fill="#E55737"/>
<path fill-rule="evenodd" clip-rule="evenodd" d="M22.8143 29.9976L26.2753 26.3683C26.5148 26.1284 26.6889 25.8477 26.7975 25.5485C26.8909 25.3011 26.9419 25.033 26.9419 24.7528V14.0444C26.9419 13.9201 27.0427 13.8194 27.1669 13.8194C27.2267 13.8194 27.2841 13.8431 27.3263 13.8855L29.9814 16.5485C30.1916 16.7594 30.3097 17.0451 30.3097 17.3428V25.8778C30.3097 28.3631 28.2993 30.3778 25.8194 30.3778H22.9771C22.8528 30.3778 22.7521 30.2771 22.7521 30.1528C22.7521 30.095 22.7744 30.0394 22.8143 29.9976Z" fill="#F6C943"/>
<path fill-rule="evenodd" clip-rule="evenodd" d="M5.99355 22.8646L9.61379 26.332C9.85325 26.5719 10.1333 26.7464 10.4319 26.8553C10.6787 26.9488 10.9463 27 11.2258 27H21.9118C22.036 27 22.1368 27.1007 22.1368 27.225C22.1368 27.2846 22.1131 27.3418 22.071 27.384L19.4135 30.045C19.2025 30.2563 18.9161 30.375 18.6175 30.375H10.1032C7.6233 30.375 5.61292 28.3603 5.61292 25.875V23.0271C5.61292 22.9028 5.71365 22.8021 5.83791 22.8021C5.89591 22.8021 5.95166 22.8245 5.99355 22.8646Z" fill="#7B8FEC"/>
<path fill-rule="evenodd" clip-rule="evenodd" d="M13.1083 6.00528L9.64726 9.6345C9.4078 9.87447 9.23374 10.1552 9.12507 10.4543C9.03174 10.7017 8.98066 10.9699 8.98066 11.25V21.9585C8.98066 22.0828 8.87992 22.1835 8.75566 22.1835C8.69587 22.1835 8.63853 22.1597 8.59632 22.1174L5.94123 19.4543C5.73098 19.2434 5.61292 18.9578 5.61292 18.66V10.125C5.61292 7.63972 7.6233 5.625 10.1032 5.625H12.9455C13.0698 5.625 13.1705 5.72574 13.1705 5.85C13.1705 5.90783 13.1482 5.96343 13.1083 6.00528Z" fill="#D77EE9"/>
</svg>
